<?xml version="1.0" encoding="UTF-8"?>
<svg xmlns="http://www.w3.org/2000/svg" viewBox="0 0 200 200" role="img" aria-labelledby="title desc" shape-rendering="geometricPrecision" text-rendering="geometricPrecision">
  <title id="title">화이팅 선생님 도장</title>
  <desc id="desc">붉은 잉크의 활기찬 원형 테두리 안에 깃발과 화이팅 글자가 있는 응원 도장</desc>
  <g fill="none" stroke="#E5384D" stroke-linecap="round" stroke-linejoin="round">
    <path d="M100 15 C145 15 183 52 184 98 C185 144 148 182 101 184 C55 186 17 149 16 102 C15 56 52 17 100 15 Z" stroke-width="6"/>
    <path d="M100 27 C139 27 171 59 172 99 C173 138 141 171 101 172 C61 173 28 141 28 101 C28 61 60 28 100 27 Z" stroke-width="2.5" opacity=".7"/>
    <path d="M65 78 V44" stroke-width="4"/>
    <path d="M67 46 Q81 39 95 48 Q83 55 68 55 Z" fill="#E5384D" stroke-width="2"/>
    <path d="M136 63 l3 6 6.5 1-4.8 4.6 1.2 6.4-5.9-3.1-5.9 3.1 1.2-6.4-4.8-4.6 6.5-1 3-6Z" fill="#E5384D" stroke="none"/>
    <path d="M54 136 C68 147 83 152 100 153 C119 153 136 147 147 135" stroke-width="4"/>
  </g>
  <text x="100" y="120" textLength="112" lengthAdjust="spacingAndGlyphs" fill="#E5384D" text-anchor="middle" font-family="NanumSquareRound, Nanum Gothic, Apple SD Gothic Neo, sans-serif" font-size="35" font-weight="800">화이팅!</text>
</svg>
